{
  "asset": {
    "version": "2.0",
    "generator": "THREE.GLTFExporter"
  },
  "scenes": [
    {
      "name": "AuxScene",
      "nodes": [
        21
      ]
    }
  ],
  "scene": 0,
  "nodes": [
    {
      "matrix": [
        -0.9848077530122088,
        0.17306626755899263,
        0.014204106457110973,
        0,
        -0.17364817766693025,
        -0.9815075767964105,
        -0.080555490714128,
        0,
        1.734723475976807e-17,
        -0.08179818900464052,
        0.996648913246566,
        0,
        0.3063016830440167,
        -0.3278662510830903,
        0.4559148452144946,
        1
      ],
      "name": "default_secondary_color_3",
      "extras": {
        "name": "default_secondary_color"
      },
      "mesh": 0
    },
    {
      "matrix": [
        -0.9848077530122088,
        0.17306626755899263,
        0.014204106457110973,
        0,
        -0.17364817766693025,
        -0.9815075767964105,
        -0.080555490714128,
        0,
        1.734723475976807e-17,
        -0.08179818900464052,
        0.996648913246566,
        0,
        0.3063016830440167,
        -0.3278662510830903,
        0.4559148452144946,
        1
      ],
      "name": "default_primary_color_2",
      "extras": {
        "name": "default_primary_color"
      },
      "mesh": 1
    },
    {
      "matrix": [
        0.9892005001606516,
        0.13443510999810712,
        -0.05839153775776343,
        0,
        0.13096395926638743,
        -0.9895881711183148,
        -0.05969667458061064,
        0,
        0.06580890407225654,
        -0.0514047933806581,
        0.9965072680930628,
        0,
        -0.2958872999872861,
        -0.2765503118269649,
        0.5032098931793907,
        1
      ],
      "name": "default_secondary_color_4",
      "extras": {
        "name": "default_secondary_color"
      },
      "mesh": 0
    },
    {
      "matrix": [
        0.9888331564379305,
        0.1346313850877243,
        -0.06390132141326058,
        0,
        0.13304726904260042,
        -0.9907013024657028,
        -0.028449138705161362,
        0,
        0.06713726930182541,
        -0.01962955532151744,
        0.9975506341176741,
        0,
        -0.29377767219199197,
        -0.27733026823384377,
        0.4973330709042712,
        1
      ],
      "name": "default_primary_color_3",
      "extras": {
        "name": "default_primary_color"
      },
      "mesh": 1
    },
    {
      "name": "default_secondary_color",
      "extras": {
        "name": "default_secondary_color"
      },
      "mesh": 2
    },
    {
      "name": "default_primary_color",
      "extras": {
        "name": "default_primary_color"
      },
      "mesh": 3
    },
    {
      "matrix": [
        1,
        0,
        0,
        0,
        0,
        2.220446049250313e-16,
        1,
        0,
        0,
        -1,
        2.220446049250313e-16,
        0,
        0,
        -0.32006656658600413,
        1.2149999197555759,
        1
      ],
      "name": "playerbody",
      "extras": {
        "name": "player/body"
      },
      "children": [
        4,
        5
      ]
    },
    {
      "name": "default_secondary_color_1",
      "extras": {
        "name": "default_secondary_color"
      },
      "mesh": 4
    },
    {
      "matrix": [
        1,
        0,
        0,
        0,
        0,
        2.220446049250313e-16,
        1,
        0,
        0,
        -1,
        2.220446049250313e-16,
        0,
        0,
        -0.3200665665860044,
        -0.08500008024442418,
        1
      ],
      "name": "playerfeet",
      "extras": {
        "name": "player/feet"
      },
      "children": [
        7
      ]
    },
    {
      "matrix": [
        -0.9848077530122086,
        0.1710100716628343,
        0.030153689607045793,
        0,
        -0.17364817766693028,
        -0.9698463103929547,
        -0.17101007166283438,
        0,
        0,
        -0.1736481776669303,
        0.9848077530122079,
        0,
        0.3,
        -0.5,
        -0.4,
        1
      ]
    },
    {
      "matrix": [
        0.9848077530122081,
        -0.12278780396897293,
        0.12278780396897293,
        0,
        -0.17364817766693047,
        -0.696364240320019,
        0.6963642403200189,
        0,
        6.938893903907228e-18,
        0.7071067811865476,
        0.7071067811865475,
        0,
        -0.3,
        -0.75,
        -0.1,
        1
      ]
    },
    {
      "matrix": [
        1,
        0,
        0,
        0,
        0,
        0.46297308999447667,
        0.8863723359519778,
        0,
        0,
        -0.8863723359519778,
        0.46297308999447667,
        0,
        0,
        -0.3200665665860041,
        1.1093593974074882,
        1
      ],
      "name": "playerhand_claw",
      "extras": {
        "name": "player/hand_claw"
      },
      "children": [
        9,
        10
      ]
    },
    {
      "name": "default_primary_color_1",
      "extras": {
        "name": "default_primary_color"
      },
      "mesh": 5
    },
    {
      "name": "default_secondary_color_2",
      "extras": {
        "name": "default_secondary_color"
      },
      "mesh": 6
    },
    {
      "name": "default_secondary_color_visor",
      "extras": {
        "name": "default_secondary_color_visor"
      },
      "mesh": 7
    },
    {
      "matrix": [
        0.988499093878162,
        -0.15122678797770145,
        1.3877787807814457e-17,
        0,
        4.163336342344337e-17,
        2.220446049250313e-16,
        1,
        0,
        -0.15122678797770145,
        -0.988499093878162,
        2.220446049250313e-16,
        0,
        0,
        -0.3936268937895747,
        1.4458584102885683,
        1
      ],
      "name": "playerhead",
      "extras": {
        "name": "player/head"
      },
      "children": [
        12,
        13,
        14
      ]
    },
    {
      "name": "default_4",
      "extras": {
        "name": "default"
      },
      "mesh": 8
    },
    {
      "matrix": [
        -1,
        1.2246467991473532e-16,
        -2.465190328815662e-32,
        0,
        0,
        2.220446049250313e-16,
        1,
        0,
        1.2246467991473532e-16,
        1,
        -2.220446049250313e-16,
        0,
        -0.718190142337748,
        -0.47576695179654027,
        -0.08500008024442418,
        1
      ],
      "name": "playercheckpoint",
      "extras": {
        "name": "player/checkpoint"
      },
      "children": [
        16
      ]
    },
    {
      "name": "default_secondary_color_5",
      "extras": {
        "name": "default_secondary_color"
      },
      "mesh": 9
    },
    {
      "name": "default_primary_color_4",
      "extras": {
        "name": "default_primary_color"
      },
      "mesh": 10
    },
    {
      "matrix": [
        1,
        0,
        0,
        0,
        0,
        2.220446049250313e-16,
        1,
        0,
        0,
        -1,
        2.220446049250313e-16,
        0,
        0,
        -0.5986405665860042,
        0.903044919755576,
        1
      ],
      "name": "body_backpack_original",
      "extras": {
        "name": "body_backpack_original"
      },
      "children": [
        18,
        19
      ]
    },
    {
      "name": "Group.006",
      "children": [
        0,
        1,
        2,
        3,
        6,
        8,
        11,
        15,
        17,
        20
      ]
    }
  ],
  "bufferViews": [
    {
      "buffer": 0,
      "byteOffset": 0,
      "byteLength": 8988,
      "target": 34962,
      "byteStride": 12
    },
    {
      "buffer": 0,
      "byteOffset": 8988,
      "byteLength": 8988,
      "target": 34962,
      "byteStride": 12
    },
    {
      "buffer": 0,
      "byteOffset": 17976,
      "byteLength": 11984,
      "target": 34962,
      "byteStride": 16
    },
    {
      "buffer": 0,
      "byteOffset": 29960,
      "byteLength": 5664,
      "target": 34963
    },
    {
      "buffer": 0,
      "byteOffset": 35624,
      "byteLength": 10872,
      "target": 34962,
      "byteStride": 12
    },
    {
      "buffer": 0,
      "byteOffset": 46496,
      "byteLength": 10872,
      "target": 34962,
      "byteStride": 12
    },
    {
      "buffer": 0,
      "byteOffset": 57368,
      "byteLength": 14496,
      "target": 34962,
      "byteStride": 16
    },
    {
      "buffer": 0,
      "byteOffset": 71864,
      "byteLength": 7176,
      "target": 34963
    },
    {
      "buffer": 0,
      "byteOffset": 79040,
      "byteLength": 1548,
      "target": 34962,
      "byteStride": 12
    },
    {
      "buffer": 0,
      "byteOffset": 80588,
      "byteLength": 1548,
      "target": 34962,
      "byteStride": 12
    },
    {
      "buffer": 0,
      "byteOffset": 82136,
      "byteLength": 816,
      "target": 34963
    },
    {
      "buffer": 0,
      "byteOffset": 82952,
      "byteLength": 5940,
      "target": 34962,
      "byteStride": 12
    },
    {
      "buffer": 0,
      "byteOffset": 88892,
      "byteLength": 5940,
      "target": 34962,
      "byteStride": 12
    },
    {
      "buffer": 0,
      "byteOffset": 94832,
      "byteLength": 3408,
      "target": 34963
    },
    {
      "buffer": 0,
      "byteOffset": 98240,
      "byteLength": 7644,
      "target": 34962,
      "byteStride": 12
    },
    {
      "buffer": 0,
      "byteOffset": 105884,
      "byteLength": 7644,
      "target": 34962,
      "byteStride": 12
    },
    {
      "buffer": 0,
      "byteOffset": 113528,
      "byteLength": 13824,
      "target": 34963
    },
    {
      "buffer": 0,
      "byteOffset": 127352,
      "byteLength": 9924,
      "target": 34962,
      "byteStride": 12
    },
    {
      "buffer": 0,
      "byteOffset": 137276,
      "byteLength": 9924,
      "target": 34962,
      "byteStride": 12
    },
    {
      "buffer": 0,
      "byteOffset": 147200,
      "byteLength": 8808,
      "target": 34963
    },
    {
      "buffer": 0,
      "byteOffset": 156008,
      "byteLength": 1368,
      "target": 34962,
      "byteStride": 12
    },
    {
      "buffer": 0,
      "byteOffset": 157376,
      "byteLength": 1368,
      "target": 34962,
      "byteStride": 12
    },
    {
      "buffer": 0,
      "byteOffset": 158744,
      "byteLength": 1008,
      "target": 34963
    },
    {
      "buffer": 0,
      "byteOffset": 159752,
      "byteLength": 720,
      "target": 34962,
      "byteStride": 12
    },
    {
      "buffer": 0,
      "byteOffset": 160472,
      "byteLength": 720,
      "target": 34962,
      "byteStride": 12
    },
    {
      "buffer": 0,
      "byteOffset": 161192,
      "byteLength": 384,
      "target": 34963
    },
    {
      "buffer": 0,
      "byteOffset": 161576,
      "byteLength": 432,
      "target": 34962,
      "byteStride": 12
    },
    {
      "buffer": 0,
      "byteOffset": 162008,
      "byteLength": 432,
      "target": 34962,
      "byteStride": 12
    },
    {
      "buffer": 0,
      "byteOffset": 162440,
      "byteLength": 144,
      "target": 34963
    },
    {
      "buffer": 0,
      "byteOffset": 162584,
      "byteLength": 432,
      "target": 34962,
      "byteStride": 12
    },
    {
      "buffer": 0,
      "byteOffset": 163016,
      "byteLength": 432,
      "target": 34962,
      "byteStride": 12
    },
    {
      "buffer": 0,
      "byteOffset": 163448,
      "byteLength": 192,
      "target": 34963
    },
    {
      "buffer": 0,
      "byteOffset": 163640,
      "byteLength": 1644,
      "target": 34962,
      "byteStride": 12
    },
    {
      "buffer": 0,
      "byteOffset": 165284,
      "byteLength": 1644,
      "target": 34962,
      "byteStride": 12
    },
    {
      "buffer": 0,
      "byteOffset": 166928,
      "byteLength": 840,
      "target": 34963
    }
  ],
  "buffers": [
    {
      "byteLength": 167768,
      "uri": "data:application/octet-stream;base64,"
    }
  ],
  "accessors": [
    {
      "bufferView": 0,
      "componentType": 5126,
      "count": 749,
      "max": [
        0.08017567545175552,
        0.042411983013153076,
        0.07964629679918289
      ],
      "min": [
        -0.08004961162805557,
        -0.04239097237586975,
        -0.06814342737197876
      ],
      "type": "VEC3"
    },
    {
      "bufferView": 1,
      "componentType": 5126,
      "count": 749,
      "max": [
        0.9988653063774109,
        1,
        0.9659256935119629
      ],
      "min": [
        -0.9991047382354736,
        -1,
        -0.9979652762413025
      ],
      "type": "VEC3"
    },
    {
      "bufferView": 2,
      "componentType": 5126,
      "count": 749,
      "max": [
        1,
        1,
        1,
        1
      ],
      "min": [
        1,
        1,
        1,
        1
      ],
      "type": "VEC4"
    },
    {
      "bufferView": 3,
      "componentType": 5125,
      "count": 1416,
      "max": [
        748
      ],
      "min": [
        0
      ],
      "type": "SCALAR"
    },
    {
      "bufferView": 4,
      "componentType": 5126,
      "count": 906,
      "max": [
        0.04239097237586975,
        0.042391471564769745,
        0.13114376366138458
      ],
      "min": [
        -0.08038116246461868,
        -0.04239097237586975,
        -0.08314342051744461
      ],
      "type": "VEC3"
    },
    {
      "bufferView": 5,
      "componentType": 5126,
      "count": 906,
      "max": [
        1,
        1,
        1
      ],
      "min": [
        -1,
        -1,
        -1
      ],
      "type": "VEC3"
    },
    {
      "bufferView": 6,
      "componentType": 5126,
      "count": 906,
      "max": [
        1,
        1,
        1,
        1
      ],
      "min": [
        1,
        1,
        1,
        1
      ],
      "type": "VEC4"
    },
    {
      "bufferView": 7,
      "componentType": 5125,
      "count": 1794,
      "max": [
        905
      ],
      "min": [
        0
      ],
      "type": "SCALAR"
    },
    {
      "bufferView": 8,
      "componentType": 5126,
      "count": 129,
      "max": [
        0.2546675503253937,
        -0.10020913183689117,
        0.19115769863128662
      ],
      "min": [
        -0.2552242875099182,
        -0.80582195520401,
        -0.12587523460388184
      ],
      "type": "VEC3"
    },
    {
      "bufferView": 9,
      "componentType": 5126,
      "count": 129,
      "max": [
        0.9971222281455994,
        1,
        0
      ],
      "min": [
        -0.9971221685409546,
        -0.9999887347221375,
        -0.9998751282691956
      ],
      "type": "VEC3"
    },
    {
      "bufferView": 10,
      "componentType": 5125,
      "count": 204,
      "max": [
        128
      ],
      "min": [
        0
      ],
      "type": "SCALAR"
    },
    {
      "bufferView": 11,
      "componentType": 5126,
      "count": 495,
      "max": [
        0.2546675503253937,
        -0.08482807874679565,
        0.31238341331481934
      ],
      "min": [
        -0.2552242875099182,
        -0.80582195520401,
        -0.1270456314086914
      ],
      "type": "VEC3"
    },
    {
      "bufferView": 12,
      "componentType": 5126,
      "count": 495,
      "max": [
        0.9850271940231323,
        0.9945713877677917,
        0.9996517300605774
      ],
      "min": [
        -0.9850273132324219,
        -0.9999886751174927,
        -0.9991504549980164
      ],
      "type": "VEC3"
    },
    {
      "bufferView": 13,
      "componentType": 5125,
      "count": 852,
      "max": [
        494
      ],
      "min": [
        0
      ],
      "type": "SCALAR"
    },
    {
      "bufferView": 14,
      "componentType": 5126,
      "count": 637,
      "max": [
        0.2199999988079071,
        0.019999999552965164,
        0.2199999988079071
      ],
      "min": [
        -0.2199999988079071,
        -0.019999999552965164,
        -0.2199999988079071
      ],
      "type": "VEC3"
    },
    {
      "bufferView": 15,
      "componentType": 5126,
      "count": 637,
      "max": [
        1,
        0.99993896484375,
        1
      ],
      "min": [
        -1,
        -0.99993896484375,
        -1
      ],
      "type": "VEC3"
    },
    {
      "bufferView": 16,
      "componentType": 5125,
      "count": 3456,
      "max": [
        636
      ],
      "min": [
        0
      ],
      "type": "SCALAR"
    },
    {
      "bufferView": 17,
      "componentType": 5126,
      "count": 827,
      "max": [
        0.22481128573417664,
        0.19151555001735687,
        0.2667200565338135
      ],
      "min": [
        -0.22501730918884277,
        -0.2986719310283661,
        -0.291840523481369
      ],
      "type": "VEC3"
    },
    {
      "bufferView": 18,
      "componentType": 5126,
      "count": 827,
      "max": [
        1,
        1,
        0.999847412109375
      ],
      "min": [
        -1,
        -1,
        -1
      ],
      "type": "VEC3"
    },
    {
      "bufferView": 19,
      "componentType": 5125,
      "count": 2202,
      "max": [
        826
      ],
      "min": [
        0
      ],
      "type": "SCALAR"
    },
    {
      "bufferView": 20,
      "componentType": 5126,
      "count": 114,
      "max": [
        0.21963448822498322,
        0.009071802720427513,
        0.18077847361564636
      ],
      "min": [
        -0.21995329856872559,
        -0.2974994480609894,
        -0.2899627983570099
      ],
      "type": "VEC3"
    },
    {
      "bufferView": 21,
      "componentType": 5126,
      "count": 114,
      "max": [
        0.8564409017562866,
        0.003326517529785633,
        0.3249916136264801
      ],
      "min": [
        -0.8564409017562866,
        -0.8074586987495422,
        -1
      ],
      "type": "VEC3"
    },
    {
      "bufferView": 22,
      "componentType": 5125,
      "count": 252,
      "max": [
        113
      ],
      "min": [
        0
      ],
      "type": "SCALAR"
    },
    {
      "bufferView": 23,
      "componentType": 5126,
      "count": 60,
      "max": [
        0.20348262786865234,
        0.07870359718799591,
        -0.0007972441962920129
      ],
      "min": [
        -0.20368866622447968,
        -0.12641240656375885,
        -0.20344099402427673
      ],
      "type": "VEC3"
    },
    {
      "bufferView": 24,
      "componentType": 5126,
      "count": 60,
      "max": [
        0.9931638240814209,
        0.42243722081184387,
        -0.0948820486664772
      ],
      "min": [
        -0.9931638240814209,
        -0.206732377409935,
        -0.9917905330657959
      ],
      "type": "VEC3"
    },
    {
      "bufferView": 25,
      "componentType": 5125,
      "count": 96,
      "max": [
        59
      ],
      "min": [
        0
      ],
      "type": "SCALAR"
    },
    {
      "bufferView": 26,
      "componentType": 5126,
      "count": 36,
      "max": [
        0.07216880470514297,
        0.5,
        0.083333320915699
      ],
      "min": [
        -0.07216877490282059,
        0,
        -0.08333335071802139
      ],
      "type": "VEC3"
    },
    {
      "bufferView": 27,
      "componentType": 5126,
      "count": 36,
      "max": [
        0.9607689380645752,
        0.27735015749931335,
        0.8320503234863281
      ],
      "min": [
        -0.9607689380645752,
        -0.27735012769699097,
        -0.8320503234863281
      ],
      "type": "VEC3"
    },
    {
      "bufferView": 28,
      "componentType": 5125,
      "count": 36,
      "max": [
        35
      ],
      "min": [
        0
      ],
      "type": "SCALAR"
    },
    {
      "bufferView": 29,
      "componentType": 5126,
      "count": 36,
      "max": [
        0.1793646514415741,
        0.07221877574920654,
        0.1733049750328064
      ],
      "min": [
        -0.1793646514415741,
        -0.15686777234077454,
        0.037661850452423096
      ],
      "type": "VEC3"
    },
    {
      "bufferView": 30,
      "componentType": 5126,
      "count": 36,
      "max": [
        0.20146982371807098,
        0.9842724204063416,
        0.9015018343925476
      ],
      "min": [
        -0.2001175880432129,
        -0.9916843771934509,
        -0.12828880548477173
      ],
      "type": "VEC3"
    },
    {
      "bufferView": 31,
      "componentType": 5125,
      "count": 48,
      "max": [
        35
      ],
      "min": [
        0
      ],
      "type": "SCALAR"
    },
    {
      "bufferView": 32,
      "componentType": 5126,
      "count": 137,
      "max": [
        0.23459890484809875,
        0.19159048795700073,
        0.1733049750328064
      ],
      "min": [
        -0.23459888994693756,
        -0.15686777234077454,
        -0.024071574211120605
      ],
      "type": "VEC3"
    },
    {
      "bufferView": 33,
      "componentType": 5126,
      "count": 137,
      "max": [
        0.9908929467201233,
        0.9628296494483948,
        0.982984185218811
      ],
      "min": [
        -0.9908930063247681,
        -0.9721157550811768,
        -0.996201753616333
      ],
      "type": "VEC3"
    },
    {
      "bufferView": 34,
      "componentType": 5125,
      "count": 210,
      "max": [
        136
      ],
      "min": [
        0
      ],
      "type": "SCALAR"
    }
  ],
  "materials": [
    {
      "pbrMetallicRoughness": {
        "baseColorFactor": [
          1,
          0,
          0,
          1
        ],
        "metallicFactor": 0,
        "roughnessFactor": 1
      }
    },
    {
      "pbrMetallicRoughness": {
        "metallicFactor": 0,
        "roughnessFactor": 1
      }
    },
    {
      "pbrMetallicRoughness": {
        "baseColorFactor": [
          1,
          0,
          0,
          1
        ],
        "metallicFactor": 0,
        "roughnessFactor": 1
      }
    },
    {
      "pbrMetallicRoughness": {
        "metallicFactor": 0,
        "roughnessFactor": 1
      }
    },
    {
      "pbrMetallicRoughness": {
        "metallicFactor": 0,
        "roughnessFactor": 1
      }
    },
    {
      "pbrMetallicRoughness": {
        "metallicFactor": 0,
        "roughnessFactor": 1
      }
    },
    {
      "pbrMetallicRoughness": {
        "baseColorFactor": [
          1,
          0,
          0,
          1
        ],
        "metallicFactor": 0,
        "roughnessFactor": 1
      }
    },
    {
      "pbrMetallicRoughness": {
        "baseColorFactor": [
          1,
          0,
          0,
          1
        ],
        "metallicFactor": 0,
        "roughnessFactor": 1
      }
    },
    {
      "pbrMetallicRoughness": {
        "baseColorFactor": [
          1,
          0,
          0,
          1
        ],
        "metallicFactor": 0,
        "roughnessFactor": 1
      }
    },
    {
      "pbrMetallicRoughness": {
        "baseColorFactor": [
          1,
          0,
          0,
          1
        ],
        "metallicFactor": 0,
        "roughnessFactor": 1
      }
    },
    {
      "pbrMetallicRoughness": {
        "metallicFactor": 0,
        "roughnessFactor": 1
      }
    }
  ],
  "meshes": [
    {
      "primitives": [
        {
          "mode": 4,
          "attributes": {
            "POSITION": 0,
            "NORMAL": 1,
            "COLOR_0": 2
          },
          "indices": 3,
          "material": 0
        }
      ]
    },
    {
      "primitives": [
        {
          "mode": 4,
          "attributes": {
            "POSITION": 4,
            "NORMAL": 5,
            "COLOR_0": 6
          },
          "indices": 7,
          "material": 1
        }
      ]
    },
    {
      "primitives": [
        {
          "mode": 4,
          "attributes": {
            "POSITION": 8,
            "NORMAL": 9
          },
          "indices": 10,
          "material": 2
        }
      ]
    },
    {
      "primitives": [
        {
          "mode": 4,
          "attributes": {
            "POSITION": 11,
            "NORMAL": 12
          },
          "indices": 13,
          "material": 3
        }
      ]
    },
    {
      "primitives": [
        {
          "mode": 4,
          "attributes": {
            "POSITION": 14,
            "NORMAL": 15
          },
          "indices": 16,
          "material": 4
        }
      ]
    },
    {
      "primitives": [
        {
          "mode": 4,
          "attributes": {
            "POSITION": 17,
            "NORMAL": 18
          },
          "indices": 19,
          "material": 5
        }
      ]
    },
    {
      "primitives": [
        {
          "mode": 4,
          "attributes": {
            "POSITION": 20,
            "NORMAL": 21
          },
          "indices": 22,
          "material": 6
        }
      ]
    },
    {
      "primitives": [
        {
          "mode": 4,
          "attributes": {
            "POSITION": 23,
            "NORMAL": 24
          },
          "indices": 25,
          "material": 7
        }
      ]
    },
    {
      "primitives": [
        {
          "mode": 4,
          "attributes": {
            "POSITION": 26,
            "NORMAL": 27
          },
          "indices": 28,
          "material": 8
        }
      ]
    },
    {
      "primitives": [
        {
          "mode": 4,
          "attributes": {
            "POSITION": 29,
            "NORMAL": 30
          },
          "indices": 31,
          "material": 9
        }
      ]
    },
    {
      "primitives": [
        {
          "mode": 4,
          "attributes": {
            "POSITION": 32,
            "NORMAL": 33
          },
          "indices": 34,
          "material": 10
        }
      ]
    }
  ]
}